<?xml version="1.0" encoding="UTF-8"?>
<svg width="137px" height="137px" viewBox="0 0 137 137" version="1.1" xmlns="http://www.w3.org/2000/svg" xmlns:xlink="http://www.w3.org/1999/xlink">
    <!-- Generator: Sketch 48.2 (47327) - http://www.bohemiancoding.com/sketch -->
    <title>Asset_3_3</title>
    <desc>Created with Sketch.</desc>
    <defs></defs>
    <g id="Page-1" stroke="none" stroke-width="1" fill="none" fill-rule="evenodd">
        <g id="Asset_3_3" transform="translate(-1.000000, -2.000000)" fill-rule="nonzero">
            <path d="M0.1,69.7 L0.1,3.2 C-2.66453526e-15,0.9 0.3,0 3,0 C47,0.1 91,0.1 135,0 C137.3,0 138.2,0.3 138.2,3 C138.1,47.3 138.1,91.7 138.2,136 C138.2,138.3 137.9,139.2 135.2,139.2 C91.2,139.1 47.2,139.1 3.2,139.2 C-1.42108547e-14,139.2 -1.42108547e-14,138.1 -1.42108547e-14,135.7 C0.1,113.7 0.1,91.7 0.1,69.7 Z M68.8,138.1 C106.4,138.2 136.9,107.9 137,70.3 C137.1,32.7 106.8,2.2 69.2,2.1 C31.7,1.9 1.2,32.3 1.1,69.8 C0.9,107.4 31.3,137.9 68.8,138.1 C68.8,138.1 68.8,138.1 68.8,138.1 Z" id="Shape"></path>
            <path d="M68.8,138.1 C31.3,138 0.9,107.4 1.1,69.9 C1.3,32.4 31.7,2 69.3,2.1 C106.9,2.2 137.2,32.8 137.1,70.3 C136.9,107.8 106.4,138.2 68.8,138.1 C68.8,138.1 68.8,138.1 68.8,138.1 Z M99,94.3 C99.3,91.5 98.6,88.2 97.9,84.9 C95.8,74.9 84,68.8 74.7,72.8 C71.3,74.3 67.5,74.4 64,73 C52.8,68.7 42,74.9 40,86.7 C39.5,89.3 39.2,92 39.2,94.6 C39,101.9 40.2,103.9 47.3,106.3 C61.6,111.1 77,111.1 91.3,106.2 C98,103.9 99.1,101.8 99,94.3 Z M85,48 C85.4,45.8 84.6,43 83.9,40.3 C82.2,34 77.8,31 69.9,30.4 C63.5,29.9 57.3,32.7 55.2,37.7 C51.9,45.6 51.8,53.7 56.1,61.2 C62.4,72 75.8,71.8 82,61 C84.3,57.1 85.3,52.6 85,48 Z" id="Shape" fill="#4D7BBA"></path>
            <path d="M99,94.3 C99.1,101.8 98,103.9 91.2,106.2 C76.9,111.1 61.5,111.1 47.2,106.3 C40.1,104 38.9,102 39.1,94.6 C39.2,91.9 39.5,89.3 40,86.7 C42,74.9 52.9,68.7 64,73 C67.5,74.4 71.3,74.3 74.7,72.7 C84,68.7 95.9,74.9 97.9,84.8 C98.6,88.1 99.3,91.4 99,94.3 Z" id="Shape" fill="#FCFDFE"></path>
            <path d="M85,48 C85.3,52.6 84.3,57.1 82,61.1 C75.8,71.8 62.4,72 56.2,61.2 C51.8,53.7 52,45.6 55.3,37.7 C57.4,32.7 63.5,29.9 70,30.4 C77.9,31 82.3,34 84,40.3 C84.6,43 85.4,45.7 85,48 Z" id="Shape" fill="#FBFCFE"></path>
        </g>
    </g>
</svg>