<?xml version="1.0" encoding="UTF-8"?>
<svg width="137px" height="137px" viewBox="0 0 137 137" version="1.1" xmlns="http://www.w3.org/2000/svg" xmlns:xlink="http://www.w3.org/1999/xlink">
    <!-- Generator: Sketch 48.2 (47327) - http://www.bohemiancoding.com/sketch -->
    <title>Asset_8_3</title>
    <desc>Created with Sketch.</desc>
    <defs></defs>
    <g id="Page-1" stroke="none" stroke-width="1" fill="none" fill-rule="evenodd">
        <g id="Asset_8_3" transform="translate(-1.000000, -2.000000)" fill-rule="nonzero">
            <path d="M0.1,69.5 C0.1,47.5 0.1,25.5 0.1,3.5 C0,1.1 -0.1,0 3.1,0 C47.1,0.1 91.1,0.1 135.1,0 C137.7,0 138.1,0.8 138.1,3.1 C138,47.4 138,91.8 138.1,136.1 C138.1,138.8 137.3,139.1 135,139.1 C91,139 47,139 3,139.1 C0.3,139.1 0,138.3 0,136 C0.1,113.9 0.1,91.7 0.1,69.5 Z M69.2,138.1 C106.8,138.1 137.2,107.6 137.1,70 C137.1,32.4 106.6,2 69,2.1 C31.4,2.1 1,32.6 1.1,70.2 C1.1,107.8 31.6,138.1 69.2,138.1 Z" id="Shape"></path>
            <path d="M69.2,138.1 C31.6,138.2 1.2,107.8 1.1,70.2 C1,32.6 31.4,2.2 69,2.1 C106.5,2 137,32.4 137.1,70 C137.1,107.6 106.7,138 69.2,138.1 Z M68.8,76.6 C69.6,75.2 69.9,74.7 70,74.3 C70.7,72.8 70.7,70.6 72.6,70.3 C74.7,70 75.2,72.1 75.9,73.5 C76.6,75.2 78.4,76.2 80.2,76.1 C87.5,75.9 94.9,75.9 102.2,76 C104.4,76 105.5,75.2 106.3,73.2 C110.2,64 106.6,51.1 98.6,45.9 C89.8,40.2 78.8,41.5 71.4,49.6 C69.4,51.8 68.7,51.3 67,49.6 C59.2,41.8 48.5,40.4 40.2,45.7 C32.4,50.9 28.8,62.5 32,72 C32.8,74.4 34,75.5 36.6,75.4 C42.6,75.2 48.6,75.2 54.6,75.4 C57.4,75.5 58.5,74.3 58.9,71.8 C59.7,67.7 60.4,63.6 61.4,59.6 C61.7,58.2 61.5,55.8 64,56.1 C66,56.3 65.8,58.1 66,59.6 C66.9,64.9 67.8,70.1 68.8,76.6 Z M69.3,108.2 C76.8,94.4 93.1,92.3 102.1,80 C94,80 86.5,80 79.1,80 C76.9,80 74.9,80 73.4,77.2 C72.5,80 71.8,82.2 71.1,84.4 C70.6,85.9 70.5,88.1 68.3,88 C66.1,87.9 66.3,85.8 66,84.2 C65.3,79.5 64.5,74.9 63.6,69 C63.2,70.2 62.9,71.4 62.7,72.6 C62.5,78.5 59.1,79.8 53.8,79.3 C48.1,78.9 42.4,79.2 35.8,79.2 C45.1,92 61.6,94.4 69.3,108.2 Z" id="Shape" fill="#DF447C"></path>
            <path d="M68.8,76.6 C67.7,70.1 66.9,64.8 66,59.6 C65.8,58.1 65.9,56.3 64,56.1 C61.5,55.8 61.7,58.2 61.4,59.6 C60.4,63.6 59.6,67.7 58.9,71.8 C58.4,74.3 57.4,75.5 54.6,75.4 C48.6,75.2 42.6,75.2 36.6,75.4 C33.9,75.5 32.8,74.4 32,72 C28.8,62.5 32.5,50.9 40.3,45.8 C48.6,40.4 59.3,41.9 67.1,49.7 C68.8,51.4 69.5,51.9 71.5,49.7 C78.8,41.6 89.9,40.3 98.7,46 C106.7,51.2 110.2,64.1 106.4,73.3 C105.6,75.3 104.5,76.1 102.3,76.1 C95,76 87.6,76 80.3,76.1 C78.5,76.3 76.8,75.2 76,73.6 C75.3,72.2 74.8,70 72.7,70.4 C70.8,70.7 70.8,72.9 70.1,74.4 C69.9,74.8 69.7,75.2 68.8,76.6 Z" id="Shape" fill="#FBFDFE"></path>
            <path d="M69.3,108.2 C61.5,94.3 45.1,92 35.8,79.2 C42.5,79.2 48.2,78.9 53.8,79.3 C59.1,79.7 62.5,78.5 62.7,72.6 C62.9,71.4 63.2,70.2 63.6,69 C64.5,74.9 65.3,79.5 66,84.2 C66.2,85.8 66,87.9 68.3,88 C70.6,88.1 70.5,85.9 71.1,84.4 C71.9,82.2 72.5,80 73.4,77.2 C74.9,80 76.9,80 79.1,80 C86.5,79.9 93.9,80 102.1,80 C93.2,92.3 76.8,94.5 69.3,108.2 Z" id="Shape" fill="#F7FBFD"></path>
        </g>
    </g>
</svg>