<?xml version="1.0" encoding="utf-8"?>
<!-- Generator: Adobe Illustrator 22.1.0, SVG Export Plug-In . SVG Version: 6.00 Build 0)  -->
<svg version="1.1" id="レイヤー_1" xmlns="http://www.w3.org/2000/svg" xmlns:xlink="http://www.w3.org/1999/xlink" x="0px"
	 y="0px" viewBox="0 0 60.2 61.2" style="enable-background:new 0 0 60.2 61.2;" xml:space="preserve">
<style type="text/css">
	.st0{fill:#DF447C;}
</style>
<title>Asset_2_2</title>
<g id="Layer_2_1_">
	<g id="Layer_1-2">
		<path class="st0" d="M29.6,30.7c-0.7-4.7-1.2-8.3-1.9-11.8c-0.2-0.9-0.4-2.1-1.6-2.2s-1.4,1.2-1.8,2.1c-0.2,0.5-0.1,1-0.3,1.5
			c-1.1,3.4-0.2,9.1-3,10c-4.8,1.6-10.5,0.7-15.8,0.6c-1.9,0-2.1-1.9-2.5-3.3c-2-6.4,0.7-14.8,6-18.3c5.9-3.8,13.7-3.1,18.8,1.8
			c2.1,2,3.2,1.8,5.2-0.1c5.1-4.9,13-5.6,18.9-1.6c5.3,3.6,7.9,12.4,5.7,18.8c-0.7,2.1-1.7,3-3.9,3c-5-0.1-10,0-15,0
			c-1.2,0-2.5,0.1-3.1-1.1C33.7,26.6,31.9,26.5,29.6,30.7z"/>
		<path class="st0" d="M6.1,33.9c4.4,0,8.1-0.3,11.6,0.1c4.7,0.4,7.9-0.6,7.6-6.5c2.3,3.4,1.3,7,2.5,10.1c0.3,0.9,0.1,2.2,1.4,2.4
			c1.6,0.2,2-1.2,2-2.2c0.4-4.1,2.7-3.9,6-3.6c5.3,0.5,10.6,0.1,16.5,0.1c-2.9,4.9-7.4,7.1-11.5,9.7s-7.9,4.9-10.8,8.7
			c-0.7,1-1.3,2.2-2.5,0.5c-3.8-5.7-10-8.2-15.3-11.8C10.7,39.3,8.1,36.8,6.1,33.9z"/>
	</g>
</g>
</svg>
