<?xml version="1.0" encoding="utf-8"?>
<!-- Generator: Adobe Illustrator 22.1.0, SVG Export Plug-In . SVG Version: 6.00 Build 0)  -->
<svg version="1.1" id="レイヤー_1" xmlns="http://www.w3.org/2000/svg" xmlns:xlink="http://www.w3.org/1999/xlink" x="0px"
	 y="0px" viewBox="0 0 60.1 61.1" style="enable-background:new 0 0 60.1 61.1;" xml:space="preserve">
<style type="text/css">
	.st0{fill:#65A560;}
</style>
<title>Asset 6</title>
<g id="Layer_2_1_">
	<g id="Layer_1-2">
		<path class="st0" d="M30.5,12.1c4.2-0.1,8.3,0.5,12.2,1.9c2.6,0.7,4.8,2.5,5.9,5c1.3,2.9,2.6,5,6.5,4.7c2.5-0.2,3.1,3.4,1,6.1
			c-0.5,0.6-2.4,0.3-1.3,1.9c4.2,6.4-2.9,11.5-1.9,17.5c0.2,1.4-1.7,1.9-3.1,1.8c-2-0.2-4.9,1.1-5.5-1.8s-2.4-2.3-4.1-2.3
			c-5.5,0-11-0.1-16.5,0c-3,0.1-6.5-1.4-8.2,3.3c-0.7,1.8-4,0.9-6.1,0.7S7.1,48.7,7.2,47c0.1-2.2-0.5-4.3-1.8-6.1
			c-1.1-1.5-1.5-3.4-1.1-5.3c0.7-2.7,1.6-5-0.8-7.8C2,26,2.7,23.3,6.4,23.4c1.4,0,3.1,0.5,3.8-1.4c3.4-9.3,11.4-9.5,19.3-9.9H30.5z
			 M46.8,25.9c-1-5.9-4.1-8.2-9.2-9c-5.4-0.9-11-0.8-16.3,0.3c-3.1,0.6-5.5,2.2-6.7,5.3c-0.8,2.2-1,3.4,2,3.4
			C26.5,25.9,36.5,25.9,46.8,25.9z M18.9,36.8c-0.5-2.4-1.7-3.9-4.3-3.8s-3.9,1.7-3.8,4.2c-0.1,2,1.4,3.8,3.4,3.9c0.2,0,0.5,0,0.7,0
			C17.5,40.9,18.6,39.1,18.9,36.8z M45.8,41.1c2.5-0.3,4-1.7,4-4.1c0.2-2-1.4-3.8-3.4-4c-0.2,0-0.4,0-0.6,0c-2.6,0-3.9,1.5-3.9,4
			S43.3,40.8,45.8,41.1z"/>
	</g>
</g>
</svg>
