<?xml version="1.0" encoding="utf-8"?>
<!-- Generator: Adobe Illustrator 22.1.0, SVG Export Plug-In . SVG Version: 6.00 Build 0)  -->
<svg version="1.1" id="レイヤー_1" xmlns="http://www.w3.org/2000/svg" xmlns:xlink="http://www.w3.org/1999/xlink" x="0px"
	 y="0px" viewBox="0 0 60.1 61.1" style="enable-background:new 0 0 60.1 61.1;" xml:space="preserve">
<style type="text/css">
	.st0{fill:#F7D24A;}
</style>
<title>Asset 6</title>
<g id="Layer_1-2_1_">
	<path class="st0" d="M12.7,44.8v-0.3c0.2-4.5,8.5-15.9,12.6-17.3c4.7-1.7,9.8,0.1,12.6,4.3c2.1,3.1,4,6.4,6,9.6
		c1.6,2.7,1.6,5.5-0.2,8c-1.9,2.5-4.6,3.4-7.3,2.2c-5.1-2.1-9.9-1.9-15.1-0.1C16.6,52.9,12.6,49.6,12.7,44.8z"/>
	<path class="st0" d="M31.1,17.8c0,4.1-2.7,7.4-6,7.5c-3.5,0.1-6.3-3.2-6.3-7.5s2.7-7.6,6.2-7.6S31.1,13.6,31.1,17.8z"/>
	<path class="st0" d="M39.4,13c3.2,0,5.6,2.7,5.7,6.4c0.1,4.3-3,8.3-6.7,8.3c-3.2,0.1-5.9-2.9-6-6.7C32.4,16.9,35.7,13,39.4,13z"/>
	<path class="st0" d="M53.1,30.5c0,3.4-2.9,6.6-6,6.8c-2.6,0.1-4.8-2.1-4.8-4.8c0-0.1,0-0.1,0-0.1c-0.1-3.4,3.2-6.9,6.3-6.9
		C51.1,25.4,53.1,27.6,53.1,30.5z"/>
	<path class="st0" d="M17.7,25.8c0.1,3.2-1.9,5.7-4.6,5.7c-2.9,0.1-5.8-3.2-5.9-6.6c-0.1-3.1,2-5.7,4.6-5.7
		C14.9,19.1,17.7,22.3,17.7,25.8z"/>
</g>
</svg>
