<svg xmlns="http://www.w3.org/2000/svg" width="390.25" height="351.438" viewBox="0 0 390.25 351.438">
  <metadata><?xpacket begin="﻿" id="W5M0MpCehiHzreSzNTczkc9d"?>
<x:xmpmeta xmlns:x="adobe:ns:meta/" x:xmptk="Adobe XMP Core 5.6-c142 79.160924, 2017/07/13-01:06:39        ">
   <rdf:RDF xmlns:rdf="http://www.w3.org/1999/02/22-rdf-syntax-ns#">
      <rdf:Description rdf:about=""/>
   </rdf:RDF>
</x:xmpmeta>
                                                                                                    
                                                                                                    
                                                                                                    
                                                                                                    
                                                                                                    
                                                                                                    
                                                                                                    
                                                                                                    
                                                                                                    
                                                                                                    
                                                                                                    
                                                                                                    
                                                                                                    
                                                                                                    
                                                                                                    
                                                                                                    
                                                                                                    
                                                                                                    
                                                                                                    
                                                                                                    
                           
<?xpacket end="w"?></metadata>
<defs>
    <style>
      .cls-1 {
        fill: #dbe1eb;
        fill-rule: evenodd;
      }
    </style>
  </defs>
  <path id="Forma_1" data-name="Forma 1" class="cls-1" d="M170.732,29.286H153.171a7.83,7.83,0,0,0-7.8,7.81v74.191h-69a39.459,39.459,0,0,0-11.063,1.926,38.683,38.683,0,0,0-10.162,4.613L8.8,149.651c-2.618,1.8-3.925,4.17-3.925,6.539s1.307,4.733,3.925,6.536l46.341,31.83a39.1,39.1,0,0,0,10.162,4.617A39.636,39.636,0,0,0,76.37,201.1h69v171.81a7.831,7.831,0,0,0,7.8,7.809h17.561a7.831,7.831,0,0,0,7.805-7.809V37.1A7.83,7.83,0,0,0,170.732,29.286Zm220.461,81.325L344.852,78.778a39.112,39.112,0,0,0-10.164-4.622,39.771,39.771,0,0,0-11.06-1.918H190.244l15.621,89.81H323.628a39.588,39.588,0,0,0,11.06-1.922,38.914,38.914,0,0,0,10.164-4.614l46.341-31.833c2.618-1.8,3.929-4.162,3.929-6.536S393.811,112.407,391.193,110.611Z" transform="translate(-4.875 -29.281)"/>
</svg>
