<svg xmlns="http://www.w3.org/2000/svg" width="292.657" height="405.25" viewBox="0 0 292.657 405.25">
  <metadata><?xpacket begin="﻿" id="W5M0MpCehiHzreSzNTczkc9d"?>
<x:xmpmeta xmlns:x="adobe:ns:meta/" x:xmptk="Adobe XMP Core 5.6-c142 79.160924, 2017/07/13-01:06:39        ">
   <rdf:RDF xmlns:rdf="http://www.w3.org/1999/02/22-rdf-syntax-ns#">
      <rdf:Description rdf:about=""/>
   </rdf:RDF>
</x:xmpmeta>
                                                                                                    
                                                                                                    
                                                                                                    
                                                                                                    
                                                                                                    
                                                                                                    
                                                                                                    
                                                                                                    
                                                                                                    
                                                                                                    
                                                                                                    
                                                                                                    
                                                                                                    
                                                                                                    
                                                                                                    
                                                                                                    
                                                                                                    
                                                                                                    
                                                                                                    
                                                                                                    
                           
<?xpacket end="w"?></metadata>
<defs>
    <style>
      .cls-1 {
        fill: #dbe1eb;
        fill-rule: evenodd;
      }
    </style>
  </defs>
  <path id="Forma_1" data-name="Forma 1" class="cls-1" d="M320.634,166.219V118.865H287.081V93.325H263.374v25.54H229.82v47.354H211.975V75.994H183.2V29.3H144.737V2.39H121.029V29.3H82.571v46.7H53.791V407.61H346.453V166.219H320.634ZM122.215,364.344H98.507V340.337h23.708v24.007Zm0-44.321H98.507V296.016h23.708v24.007Zm0-44.321H98.507V251.7h23.708V275.7Zm0-44.321H98.507V207.374h23.708v24.007Zm0-44.321H98.507V163.053h23.708V187.06Zm0-44.321H98.507V118.732h23.708v24.007Zm45.044,221.605H143.551V340.337h23.708v24.007Zm0-44.321H143.551V296.016h23.708v24.007Zm0-44.321H143.551V251.7h23.708V275.7Zm0-44.321H143.551V207.374h23.708v24.007Zm0-44.321H143.551V163.053h23.708V187.06Zm0-44.321H143.551V118.732h23.708v24.007Zm95.228,221.605H238.78V340.337h23.707v24.007Zm0-44.321H238.78V296.016h23.707v24.007Zm0-44.321H238.78V251.7h23.707V275.7Zm0-44.321H238.78V207.374h23.707v24.007Zm45.044,132.963H283.824V340.337h23.707v24.007Zm0-44.321H283.824V296.016h23.707v24.007Zm0-44.321H283.824V251.7h23.707V275.7Zm0-44.321H283.824V207.374h23.707v24.007Z" transform="translate(-53.781 -2.375)"/>
</svg>
