<svg 
 xmlns="http://www.w3.org/2000/svg"
 xmlns:xlink="http://www.w3.org/1999/xlink"
 width="54px" height="41px">
<path fill-rule="evenodd"  fill="rgb(219, 225, 235)"
 d="M49.871,40.390 L3.503,40.390 C1.674,40.390 0.191,38.909 0.191,37.078 L0.191,3.960 C0.191,2.130 1.674,0.648 3.503,0.648 L49.871,0.648 C51.702,0.648 53.183,2.130 53.183,3.960 L53.183,37.078 C53.183,38.909 51.702,40.390 49.871,40.390 ZM6.815,33.766 L46.559,33.766 L46.559,11.583 L28.807,26.376 C27.578,27.399 25.796,27.399 24.567,26.376 L6.815,11.583 L6.815,33.766 ZM11.988,7.272 L26.687,19.520 L41.384,7.272 L11.988,7.272 Z"/>
</svg>