<svg xmlns="http://www.w3.org/2000/svg" width="391.062" height="356.375" viewBox="0 0 391.062 356.375">
  <metadata><?xpacket begin="﻿" id="W5M0MpCehiHzreSzNTczkc9d"?>
<x:xmpmeta xmlns:x="adobe:ns:meta/" x:xmptk="Adobe XMP Core 5.6-c142 79.160924, 2017/07/13-01:06:39        ">
   <rdf:RDF xmlns:rdf="http://www.w3.org/1999/02/22-rdf-syntax-ns#">
      <rdf:Description rdf:about=""/>
   </rdf:RDF>
</x:xmpmeta>
                                                                                                    
                                                                                                    
                                                                                                    
                                                                                                    
                                                                                                    
                                                                                                    
                                                                                                    
                                                                                                    
                                                                                                    
                                                                                                    
                                                                                                    
                                                                                                    
                                                                                                    
                                                                                                    
                                                                                                    
                                                                                                    
                                                                                                    
                                                                                                    
                                                                                                    
                                                                                                    
                           
<?xpacket end="w"?></metadata>
<defs>
    <style>
      .cls-1 {
        fill: #fff;
        fill-rule: evenodd;
      }
    </style>
  </defs>
  <path class="cls-1" d="M394.316,172.647l-41.844-29.462a11.467,11.467,0,0,0-18.06,9.352v18.02H133.5a11.443,11.443,0,1,0,0,22.886H334.41v18.019a11.47,11.47,0,0,0,18.06,9.352l41.844-29.462A11.456,11.456,0,0,0,394.316,172.647Zm-57.433,82.828a11.468,11.468,0,0,0-15.656,4.175,155.527,155.527,0,0,1-134.715,77.666C100.761,337.316,31,267.641,31,182S100.761,26.685,186.512,26.685a155.523,155.523,0,0,1,134.715,77.664,11.454,11.454,0,0,0,19.836-11.459A178.449,178.449,0,0,0,186.512,3.8C87.893,3.8,8.082,83.5,8.082,182s79.8,178.2,178.43,178.2A178.454,178.454,0,0,0,341.064,271.11,11.437,11.437,0,0,0,336.883,255.475Z" transform="translate(-8.094 -3.813)"/>
</svg>
