<svg 
 xmlns="http://www.w3.org/2000/svg"
 xmlns:xlink="http://www.w3.org/1999/xlink"
 width="54px" height="54px">
<path fill-rule="evenodd"  fill="rgb(219, 225, 235)"
 d="M43.247,53.317 L10.127,53.317 C4.648,53.317 0.190,48.860 0.190,43.381 L0.190,26.822 C0.190,22.589 2.864,18.992 6.600,17.564 C7.923,7.850 16.417,0.328 26.687,0.328 C36.957,0.328 45.450,7.850 46.774,17.563 C50.510,18.992 53.183,22.589 53.183,26.822 L53.183,43.381 C53.183,48.860 48.726,53.317 43.247,53.317 ZM26.687,6.951 C20.340,6.951 15.037,11.189 13.510,16.886 L39.864,16.886 C38.336,11.189 33.033,6.951 26.687,6.951 ZM46.558,26.822 C46.558,24.995 45.075,23.510 43.247,23.510 L10.127,23.510 C8.300,23.510 6.815,24.995 6.815,26.822 L6.815,43.381 C6.815,45.209 8.300,46.694 10.127,46.694 L43.247,46.694 C45.075,46.694 46.558,45.209 46.558,43.381 L46.558,26.822 ZM29.999,39.151 L29.999,40.069 C29.999,41.898 28.515,43.381 26.687,43.381 C24.858,43.381 23.375,41.898 23.375,40.069 L23.375,39.151 C21.404,38.004 20.063,35.891 20.063,33.446 C20.063,29.788 23.028,26.822 26.687,26.822 C30.345,26.822 33.311,29.788 33.311,33.446 C33.311,35.891 31.971,38.004 29.999,39.151 Z"/>
</svg>