<svg 
 xmlns="http://www.w3.org/2000/svg"
 xmlns:xlink="http://www.w3.org/1999/xlink"
 width="67px" height="53px">
<path fill-rule="evenodd"  fill="rgb(219, 225, 235)"
 d="M33.309,19.791 C27.842,19.791 23.413,24.225 23.413,29.690 C23.413,35.158 27.842,39.590 33.309,39.590 C38.774,39.590 43.206,35.158 43.206,29.690 C43.206,24.225 38.774,19.791 33.309,19.791 ZM59.700,9.892 L51.783,9.892 C50.694,9.892 49.521,9.047 49.177,8.013 L47.131,1.870 C46.785,0.838 45.613,-0.007 44.525,-0.007 L22.093,-0.007 C21.004,-0.007 19.832,0.838 19.488,1.871 L17.441,8.015 C17.096,9.047 15.924,9.892 14.836,9.892 L6.919,9.892 C3.290,9.892 0.321,12.862 0.321,16.491 L0.321,46.190 C0.321,49.820 3.290,52.790 6.919,52.790 L59.700,52.790 C63.328,52.790 66.297,49.820 66.297,46.190 L66.297,16.491 C66.297,12.862 63.328,9.892 59.700,9.892 ZM33.309,46.190 C24.200,46.190 16.815,38.802 16.815,29.690 C16.815,20.579 24.200,13.192 33.309,13.192 C42.417,13.192 49.803,20.579 49.803,29.690 C49.803,38.802 42.417,46.190 33.309,46.190 ZM57.391,21.107 C56.116,21.107 55.082,20.073 55.082,18.797 C55.082,17.522 56.116,16.487 57.391,16.487 C58.666,16.487 59.700,17.522 59.700,18.797 C59.700,20.073 58.666,21.107 57.391,21.107 Z"/>
</svg>