<svg xmlns="http://www.w3.org/2000/svg" width="400" height="471.688" viewBox="0 0 400 471.688">
  <metadata><?xpacket begin="﻿" id="W5M0MpCehiHzreSzNTczkc9d"?>
<x:xmpmeta xmlns:x="adobe:ns:meta/" x:xmptk="Adobe XMP Core 5.6-c142 79.160924, 2017/07/13-01:06:39        ">
   <rdf:RDF xmlns:rdf="http://www.w3.org/1999/02/22-rdf-syntax-ns#">
      <rdf:Description rdf:about=""/>
   </rdf:RDF>
</x:xmpmeta>
                                                                                                    
                                                                                                    
                                                                                                    
                                                                                                    
                                                                                                    
                                                                                                    
                                                                                                    
                                                                                                    
                                                                                                    
                                                                                                    
                                                                                                    
                                                                                                    
                                                                                                    
                                                                                                    
                                                                                                    
                                                                                                    
                                                                                                    
                                                                                                    
                                                                                                    
                                                                                                    
                           
<?xpacket end="w"?></metadata>
<defs>
    <style>
      .cls-1 {
        fill: #dbe1eb;
        fill-rule: evenodd;
      }
    </style>
  </defs>
  <path id="Forma_1" data-name="Forma 1" class="cls-1" d="M208,82.811v-9.33a32,32,0,1,0-16,0v9.33C85.416,87.032,0,174.948,0,282.476c0,110.2,89.72,199.865,200,199.865s200-89.66,200-199.865C400,174.948,314.584,87.032,208,82.811ZM184,42.638a16,16,0,1,1,16,15.989A16.011,16.011,0,0,1,184,42.638Zm-82.24,348.74a8,8,0,0,1-10.736-10.729l65.3-130.511,76.032,75.98ZM308.976,184.3l-65.3,130.512L167.64,238.833l130.6-65.26A8,8,0,0,1,308.976,184.3Z" transform="translate(0 -10.656)"/>
</svg>
