<svg xmlns="http://www.w3.org/2000/svg" width="400" height="600" viewBox="0 0 400 600">
  <metadata><?xpacket begin="﻿" id="W5M0MpCehiHzreSzNTczkc9d"?>
<x:xmpmeta xmlns:x="adobe:ns:meta/" x:xmptk="Adobe XMP Core 5.6-c142 79.160924, 2017/07/13-01:06:39        ">
   <rdf:RDF xmlns:rdf="http://www.w3.org/1999/02/22-rdf-syntax-ns#">
      <rdf:Description rdf:about=""/>
   </rdf:RDF>
</x:xmpmeta>
                                                                                                    
                                                                                                    
                                                                                                    
                                                                                                    
                                                                                                    
                                                                                                    
                                                                                                    
                                                                                                    
                                                                                                    
                                                                                                    
                                                                                                    
                                                                                                    
                                                                                                    
                                                                                                    
                                                                                                    
                                                                                                    
                                                                                                    
                                                                                                    
                                                                                                    
                                                                                                    
                           
<?xpacket end="w"?></metadata>
<defs>
    <style>
      .cls-1 {
        fill: #dbe1eb;
        fill-rule: evenodd;
      }
    </style>
  </defs>
  <path class="cls-1" d="M106.667,0V186.667H293.333V0H106.667ZM236.874,139.779H168.41V114.628h21V61.065c-3.254,4.586-16.414,12.724-24.4,12.724V48.044c10.647,0,24.1-13.463,24.4-14.056h28.685v80.638h18.78v25.153ZM186.671,521.7h13.605V503.944Zm-80-95.03V600H293.333V426.667H106.667ZM238.13,546.851H225.118v20.123H197.023V546.851h-38V521.7h0L205.9,461.921h19.223V521.7H238.13v25.154ZM0,213.333V400H186.667V213.333H0ZM130.14,360.117H49.256c0-27.224,3.254-39.654,25.729-50.305,12.274-5.772,22.921-10.951,22.921-21.751,0-7.1-4.584-9.321-9.613-9.321-7.689,0-16.117,5.179-21.737,10.653L49.255,270.6c7.837-8.878,23.806-16.719,43.03-16.719,23.955,0,37.706,12.133,37.706,33.735,0,16.274-7.689,23.674-20.849,31.367C100.714,323.869,91.1,328.6,91.1,334.966h39.038v25.151h0Zm83.193-146.784V400H400V213.333H213.333Zm91.794,148.116c-15.674,0-26.913-5.327-33.715-17.163l14.344-19.531c1.184,1.182,5.324,10.948,18.781,10.948,6.654,0,13.16-2.367,13.16-8.581,0-7.695-9.759-10.061-27.208-10.061H285.61V293.83h4.732c13.011,0,24.693-2.516,24.693-9.914,0-5.474-6.21-5.622-7.837-5.622a23.317,23.317,0,0,0-19.371,9.617l-17.745-20.862c7.837-8.73,23.66-13.316,36.968-13.316,21.885,0,38.151,12.427,38.151,28.7,0,11.393-7.986,19.235-19.073,21.454,12.864,2.072,20.849,13.909,20.849,27.077C346.975,353.015,324.793,361.449,305.127,361.449Z"/>
</svg>
