<svg xmlns="http://www.w3.org/2000/svg" width="123" height="120" viewBox="0 0 41 40">
  <metadata><?xpacket begin="﻿" id="W5M0MpCehiHzreSzNTczkc9d"?>
<x:xmpmeta xmlns:x="adobe:ns:meta/" x:xmptk="Adobe XMP Core 5.6-c142 79.160924, 2017/07/13-01:06:39        ">
   <rdf:RDF xmlns:rdf="http://www.w3.org/1999/02/22-rdf-syntax-ns#">
      <rdf:Description rdf:about=""/>
   </rdf:RDF>
</x:xmpmeta>
                                                                                                    
                                                                                                    
                                                                                                    
                                                                                                    
                                                                                                    
                                                                                                    
                                                                                                    
                                                                                                    
                                                                                                    
                                                                                                    
                                                                                                    
                                                                                                    
                                                                                                    
                                                                                                    
                                                                                                    
                                                                                                    
                                                                                                    
                                                                                                    
                                                                                                    
                                                                                                    
                           
<?xpacket end="w"?></metadata>
<defs>
    <style>
      .cls-1 {
        fill: #acb8c9;
        fill-rule: evenodd;
        opacity: 0.5;
      }
    </style>
  </defs>
  <path class="cls-1" d="M2184.51,2753.11l-18.84,18.39a1.683,1.683,0,0,1-1.17.47h-7.54a1.633,1.633,0,0,1-1.65-1.62V2763a1.58,1.58,0,0,1,.48-1.14l18.85-18.39a1.685,1.685,0,0,1,2.34,0l7.53,7.36A1.571,1.571,0,0,1,2184.51,2753.11Zm-8.7-6.21-17.19,16.77v5.07h5.19l17.19-16.77Zm-16.32,3.01h-10.06a2.09,2.09,0,0,0-2.12,2.06v25.74a2.1,2.1,0,0,0,2.12,2.06h26.38a2.094,2.094,0,0,0,2.11-2.06v-9.82a1.655,1.655,0,0,1,3.31,0v9.82a5.359,5.359,0,0,1-5.42,5.29h-26.38a5.362,5.362,0,0,1-5.43-5.29v-25.74a5.362,5.362,0,0,1,5.43-5.29h10.06A1.615,1.615,0,1,1,2159.49,2749.91Z" transform="translate(-2144 -2743)"/>
</svg>
