<?xml version="1.0" encoding="iso-8859-1"?>
<!-- Generator: Adobe Illustrator 19.0.0, SVG Export Plug-In . SVG Version: 6.00 Build 0)  -->
<svg xmlns="http://www.w3.org/2000/svg" xmlns:xlink="http://www.w3.org/1999/xlink" version="1.1" id="Capa_1" x="0px" y="0px" viewBox="0 0 512 512" style="enable-background:new 0 0 512 512;" xml:space="preserve" width="512px" height="512px">
<g>
	<g>
		<path d="M446.433,363.344c-16.485-35.44-25.463-76.436-25.448-115.492c0.024-37.879,0.117-20.577-1.45-37.852H92.289    C90.834,225.881,91,212.577,91,247.939c0,39.038-8.978,79.992-25.439,115.406C45.788,368.085,31,385.795,31,407    c0,24.814,20.186,45,45,45h120c0,33.091,26.909,60,60,60s60-26.909,60-60h120c24.814,0,45-20.186,45-45    C481,385.793,466.211,368.079,446.433,363.344z M436,422H76c-8.276,0-15-6.724-15-15s6.724-15,15-15h360c8.276,0,15,6.724,15,15    S444.276,422,436,422z" fill="#929394"/>
	</g>
</g>
<g>
	<g>
		<path d="M295.871,65.42C299.041,59.262,301,52.388,301,45c0-24.814-20.186-45-45-45c-24.814,0-45,20.186-45,45    c0,7.266,1.893,14.035,4.964,20.118C158.864,79.431,113.93,123.668,97.821,180h316.207C397.02,120,352.307,79.429,295.871,65.42z     M256,60c-8.276,0-15-6.724-15-15s6.724-15,15-15s15,6.724,15,15S264.276,60,256,60z" fill="#929394"/>
	</g>
</g>
<g>
</g>
<g>
</g>
<g>
</g>
<g>
</g>
<g>
</g>
<g>
</g>
<g>
</g>
<g>
</g>
<g>
</g>
<g>
</g>
<g>
</g>
<g>
</g>
<g>
</g>
<g>
</g>
<g>
</g>
</svg>
