<svg xmlns="http://www.w3.org/2000/svg" width="123" height="123" viewBox="0 0 41 41">
  <metadata><?xpacket begin="﻿" id="W5M0MpCehiHzreSzNTczkc9d"?>
<x:xmpmeta xmlns:x="adobe:ns:meta/" x:xmptk="Adobe XMP Core 5.6-c142 79.160924, 2017/07/13-01:06:39        ">
   <rdf:RDF xmlns:rdf="http://www.w3.org/1999/02/22-rdf-syntax-ns#">
      <rdf:Description rdf:about=""/>
   </rdf:RDF>
</x:xmpmeta>
                                                                                                    
                                                                                                    
                                                                                                    
                                                                                                    
                                                                                                    
                                                                                                    
                                                                                                    
                                                                                                    
                                                                                                    
                                                                                                    
                                                                                                    
                                                                                                    
                                                                                                    
                                                                                                    
                                                                                                    
                                                                                                    
                                                                                                    
                                                                                                    
                                                                                                    
                                                                                                    
                           
<?xpacket end="w"?></metadata>
<defs>
    <style>
      .cls-1 {
        fill: #acb8c9;
        fill-rule: evenodd;
        opacity: 0.5;
      }
    </style>
  </defs>
  <path class="cls-1" d="M2378.66,2756.9a1.182,1.182,0,0,0,.97.52h0.29a5.08,5.08,0,0,1,0,10.16h-0.16a1.154,1.154,0,0,0-1.06.71c0,0.01-.01.01-0.01,0.02a1.164,1.164,0,0,0,.23,1.28l0.1,0.1a5.085,5.085,0,0,1-3.6,8.68h0a5.037,5.037,0,0,1-3.59-1.49l-0.1-.1a1.18,1.18,0,0,0-1.29-.23,0.01,0.01,0,0,1-.01.01,1.178,1.178,0,0,0-.71,1.07v0.29a5.085,5.085,0,0,1-10.17,0v-0.13a1.155,1.155,0,0,0-.76-1.06,0.418,0.418,0,0,1-.1-0.04,1.164,1.164,0,0,0-1.28.23l-0.1.1a5.082,5.082,0,0,1-7.18,0h-0.01a5.094,5.094,0,0,1-.01-7.19h0.01l0.1-.1a1.16,1.16,0,0,0,.22-1.29v-0.01a1.178,1.178,0,0,0-1.07-.71h-0.29a5.085,5.085,0,0,1,0-10.17h0.13a1.155,1.155,0,0,0,1.06-.76,0.418,0.418,0,0,1,.04-0.1,1.164,1.164,0,0,0-.23-1.28l-0.1-.1a5.085,5.085,0,0,1,3.6-8.68h0a5.037,5.037,0,0,1,3.59,1.49l0.1,0.1a1.147,1.147,0,0,0,1.28.22,2.185,2.185,0,0,1,.34-0.1,1.167,1.167,0,0,0,.53-0.97v-0.29a5.08,5.08,0,0,1,10.16,0v0.16a1.154,1.154,0,0,0,.71,1.06c0.01,0,.01.01,0.02,0.01a1.164,1.164,0,0,0,1.28-.23l0.1-.1a5.037,5.037,0,0,1,3.59-1.49h0a5.06,5.06,0,0,1,3.6,1.49v0.01a5.07,5.07,0,0,1,0,7.18,0.01,0.01,0,0,1-.01.01l-0.09.09a1.167,1.167,0,0,0-.23,1.28A1.425,1.425,0,0,1,2378.66,2756.9Zm-2.24-3.95,0.01-.01,0.11-.11h0a1.762,1.762,0,0,0,0-2.5l-0.01-.01a1.762,1.762,0,0,0-1.25-.51h0a1.747,1.747,0,0,0-1.25.52l-0.1.1c-0.01,0-.01.01-0.02,0.01a4.5,4.5,0,0,1-7.64-3.2v-0.16a1.77,1.77,0,0,0-3.54,0v0.29a4.471,4.471,0,0,1-2.72,4.11,1.69,1.69,0,0,1-.44.12,4.441,4.441,0,0,1-4.62-1.02,0.02,0.02,0,0,0-.02-0.01l-0.1-.11a1.772,1.772,0,0,0-1.25-.52h0a1.772,1.772,0,0,0-1.25.52,1.774,1.774,0,0,0,0,2.51l0.1,0.1a0.01,0.01,0,0,0,.01.01,4.625,4.625,0,0,1-3.17,7.79h-0.19a1.77,1.77,0,1,0,0,3.54h0.29a4.5,4.5,0,0,1,3.21,7.64,0.02,0.02,0,0,0-.01.02l-0.1.09-0.01.01a1.762,1.762,0,0,0,0,2.5v0.01a1.781,1.781,0,0,0,2.51-.01l0.1-.1a0.01,0.01,0,0,0,.01-0.01,4.626,4.626,0,0,1,7.79,3.16v0.2a1.77,1.77,0,1,0,3.54,0v-0.29a4.5,4.5,0,0,1,7.64-3.21l0.01,0.01,0.11,0.11a1.772,1.772,0,0,0,1.25.52h0a1.775,1.775,0,0,0,1.25-3.03l-0.1-.1c0-.01-0.01-0.01-0.01-0.02a4.5,4.5,0,0,1,3.2-7.64h0.16a1.77,1.77,0,0,0,0-3.54h-0.29a4.471,4.471,0,0,1-4.11-2.72,1.69,1.69,0,0,1-.12-0.44A4.441,4.441,0,0,1,2376.42,2752.95Zm-11.92,16.35a6.8,6.8,0,1,1,6.8-6.8A6.807,6.807,0,0,1,2364.5,2769.3Zm0-10.28a3.48,3.48,0,1,0,3.48,3.48A3.483,3.483,0,0,0,2364.5,2759.02Z" transform="translate(-2344 -2742)"/>
</svg>
